<svg width="72" height="72" viewBox="0 0 72 72" fill="none" xmlns="http://www.w3.org/2000/svg">
<g clip-path="url(#clip0_82_3805)">
<circle cx="36" cy="36" r="36" fill="#010F17"/>
<path fill-rule="evenodd" clip-rule="evenodd" d="M46.5127 20.1727C48.0107 19.7117 49.6885 19.6091 51.0127 20.2712C51.3233 20.4265 51.5751 20.6783 51.7304 20.9889C52.3925 22.3131 52.2898 23.9908 51.8289 25.4889C51.3499 27.0457 50.4092 28.6769 49.0223 30.0638L44.0261 35.0601L46.7267 47.3628L45.159 47.7069L46.7328 47.3921C47.0372 48.9139 46.3564 50.1392 45.3195 50.9168C45.2068 51.0013 45.0835 51.0707 44.9526 51.123L44.1502 51.444C42.8157 51.9778 41.1859 51.7716 40.1837 50.4353C40.1645 50.4097 40.146 50.3835 40.1284 50.3568L35.3993 43.1957L32.6404 45.035V48.9909C32.6404 49.4165 32.4713 49.8248 32.1703 50.1257L30.5654 51.7307C30.2254 52.0707 29.7509 52.2403 29.2724 52.193C28.7939 52.1456 28.3618 51.8862 28.0951 51.4861L25.0633 46.9383L20.5155 43.9065C20.1154 43.6397 19.856 43.2077 19.8086 42.7292C19.7612 42.2507 19.9309 41.7762 20.2709 41.4362L21.8758 39.8312C22.1768 39.5302 22.585 39.3611 23.0107 39.3611H26.9666L28.8059 36.6022L21.6448 31.8732C21.6181 31.8555 21.5919 31.8371 21.5662 31.8179C20.2299 30.8156 20.0238 29.1859 20.5576 27.8514C20.5894 27.7719 20.6274 27.6951 20.6715 27.6217L21.1262 26.8639C21.8044 25.5749 23.1694 24.9807 24.6094 25.2687L24.6388 25.2749L36.9415 27.9755L41.9377 22.9792C43.3246 21.5923 44.9559 20.6517 46.5127 20.1727ZM43.5872 48.032L40.7025 34.8904C40.5852 34.3559 40.7483 33.7984 41.1353 33.4114L46.7526 27.7941C47.7731 26.7735 48.4375 25.5961 48.7609 24.5449C48.9582 23.9036 49.0073 23.3893 48.9865 23.0151C48.6123 22.9943 48.0979 23.0433 47.4567 23.2406C46.4055 23.5641 45.228 24.2284 44.2075 25.249L38.5901 30.8663C38.2032 31.2533 37.6457 31.4164 37.1112 31.2991L23.9696 28.4143C23.9588 28.4123 23.949 28.4108 23.9403 28.4097C23.9291 28.4303 23.9175 28.4507 23.9054 28.4707L23.5078 29.1335C23.4931 29.1896 23.4916 29.2271 23.4925 29.2467L31.9199 34.812C32.2761 35.0472 32.5239 35.4146 32.6086 35.833C32.6932 36.2514 32.6076 36.6863 32.3709 37.0415L29.161 41.8564C28.8633 42.3029 28.3622 42.5711 27.8256 42.5711H24.2991L27.1109 44.4456C27.2872 44.5631 27.4385 44.7144 27.556 44.8907L29.4305 47.7024V44.176C29.4305 43.6394 29.6987 43.1383 30.1452 42.8406L34.9601 39.6307C35.3152 39.3939 35.7501 39.3084 36.1685 39.393C36.5869 39.4776 36.9544 39.7255 37.1896 40.0817L42.7549 48.5091C42.7836 48.5103 42.8506 48.5067 42.958 48.4637L43.52 48.2389C43.569 48.1875 43.5848 48.155 43.5883 48.1469C43.5914 48.1401 43.5932 48.1341 43.5942 48.1234C43.5953 48.1124 43.5967 48.0836 43.5872 48.032Z" fill="#DBF227"/>
</g>
<defs>
<clipPath id="clip0_82_3805">
<rect width="72" height="72" fill="white"/>
</clipPath>
</defs>
</svg>
