<svg width="18" height="16" viewBox="0 0 20 20" fill="none" xmlns="http://www.w3.org/2000/svg">
<path d="M5.41675 7.9165H1.66675V18.3332H5.41675V7.9165Z" fill="#F0F0D6"/>
<path d="M5.41675 3.5415C5.41675 4.57704 4.57728 5.4165 3.54175 5.4165C2.50621 5.4165 1.66675 4.57704 1.66675 3.5415C1.66675 2.50597 2.50621 1.6665 3.54175 1.6665C4.57728 1.6665 5.41675 2.50597 5.41675 3.5415Z" fill="#F0F0D6"/>
<path d="M11.6668 7.9165H7.91675V18.3332H11.6668V13.125C11.6668 12.3196 12.3197 11.6667 13.1251 11.6667C13.9305 11.6667 14.5834 12.3196 14.5834 13.125V18.3332H18.3323L18.3335 11.6667C18.3335 9.59567 16.3637 7.9167 14.4141 7.9167C13.3042 7.9167 12.314 8.46075 11.6668 9.3115V7.9165Z" fill="#F0F0D6"/>
</svg>
