<svg width="72" height="72" viewBox="0 0 72 72" fill="none" xmlns="http://www.w3.org/2000/svg">
<g clip-path="url(#clip0_82_3812)">
<circle cx="36" cy="36" r="36" fill="#010F17"/>
<path d="M22.7453 49.2553H19.7998V40.419H28.6362V43.3644H24.9838C27.3549 46.9137 31.4049 49.2553 35.9998 49.2553C39.5151 49.2553 42.8865 47.8589 45.3722 45.3732C47.8579 42.8874 49.2543 39.5161 49.2543 36.0008H52.1998C52.1998 44.955 44.954 52.2008 35.9998 52.2008C30.5213 52.2008 25.676 49.4762 22.7453 45.3231V49.2553ZM19.7998 36.0008C19.7998 27.0466 27.0456 19.8008 35.9998 19.8008C41.4783 19.8008 46.3236 22.5253 49.2543 26.6784V22.7462H52.1998V31.5826H43.3634V28.6371H47.0158C44.6447 25.0879 40.5947 22.7462 35.9998 22.7462C32.4845 22.7462 29.1131 24.1427 26.6274 26.6284C24.1417 29.1141 22.7453 32.4855 22.7453 36.0008H19.7998Z" fill="#DBF227"/>
<path d="M33.4222 31.8769C33.4222 33.2612 34.6888 33.8061 37.3102 34.675C40.8448 35.8974 41.7431 37.6941 41.7431 39.7412C41.7431 43.6145 38.0613 44.3509 37.4722 44.4834V46.3096H34.5268V44.4098C33.6137 44.1447 31.1837 43.2758 30.2559 40.0505L32.7006 39.0638C32.789 39.3878 33.5548 42.1418 36.2351 42.1418C37.6048 42.1418 39.1511 41.4349 39.1511 39.7707C39.1511 38.3569 38.1202 37.6058 35.7933 36.781C34.1733 36.192 30.8597 35.2494 30.8597 31.9063C30.8597 31.759 30.8744 28.3718 34.5268 27.547V25.6914H37.4722V27.5176C40.0053 27.9889 40.992 30.1538 41.213 30.8165L38.886 31.8032C38.724 31.2878 38.0171 29.8298 36.0879 29.8298C35.057 29.8298 33.4222 30.3747 33.4222 31.8769Z" fill="#DBF227"/>
</g>
<defs>
<clipPath id="clip0_82_3812">
<rect width="72" height="72" fill="white"/>
</clipPath>
</defs>
</svg>
