<svg width="72" height="72" viewBox="0 0 72 72" fill="none" xmlns="http://www.w3.org/2000/svg">
<g clip-path="url(#clip0_82_3830)">
<circle cx="36" cy="36" r="36" fill="#010F17"/>
<path d="M33.5703 19.8008L45.3931 23.4944C45.7228 23.5973 46.011 23.803 46.2156 24.0813C46.4202 24.3596 46.5305 24.696 46.5303 25.0415V27.9008H49.7703C50.2 27.9008 50.6121 28.0715 50.9159 28.3753C51.2197 28.6791 51.3903 29.0911 51.3903 29.5208V42.4808C51.3903 42.9104 51.2197 43.3225 50.9159 43.6263C50.6121 43.9301 50.2 44.1008 49.7703 44.1008L44.5539 44.1024C43.927 44.9286 43.1656 45.6576 42.2859 46.257L33.5703 52.2008L24.8548 46.2586C23.5466 45.3667 22.4762 44.1688 21.7365 42.769C20.9968 41.3692 20.6102 39.8099 20.6104 38.2267V25.0415C20.6105 24.6963 20.721 24.3603 20.9255 24.0823C21.1301 23.8043 21.4181 23.5989 21.7476 23.496L33.5703 19.8008ZM33.5703 23.1931L23.8504 26.2322V38.2267C23.8501 39.2185 24.0776 40.1971 24.5151 41.0872C24.9527 41.9772 25.5888 42.7549 26.3743 43.3604L26.6805 43.5808L33.5703 48.2804L39.6972 44.1008H31.9503C31.5207 44.1008 31.1086 43.9301 30.8048 43.6263C30.501 43.3225 30.3303 42.9104 30.3303 42.4808V29.5208C30.3303 29.0911 30.501 28.6791 30.8048 28.3753C31.1086 28.0715 31.5207 27.9008 31.9503 27.9008H43.2903V26.2322L33.5703 23.1931ZM33.5703 36.0008V40.8608H48.1503V36.0008H33.5703ZM33.5703 32.7608H48.1503V31.1408H33.5703V32.7608Z" fill="#DBF227"/>
</g>
<defs>
<clipPath id="clip0_82_3830">
<rect width="72" height="72" fill="white"/>
</clipPath>
</defs>
</svg>
