<svg width="72" height="72" viewBox="0 0 72 72" fill="none" xmlns="http://www.w3.org/2000/svg">
<g clip-path="url(#clip0_82_3822)">
<circle cx="36" cy="36" r="36" fill="#010F17"/>
<path d="M49.2548 30.1088C50.036 30.1088 50.7853 30.4191 51.3377 30.9715C51.8901 31.5239 52.2004 32.2732 52.2004 33.0544V38.9456C52.2004 39.7268 51.8901 40.476 51.3377 41.0284C50.7853 41.5808 50.036 41.8912 49.2548 41.8912H47.6907C47.3316 44.7385 45.9458 47.357 43.7933 49.2552C41.6408 51.1533 38.8695 52.2007 35.9996 52.2008V49.2552C38.3433 49.2552 40.591 48.3242 42.2482 46.6669C43.9054 45.0097 44.8364 42.762 44.8364 40.4184V31.5816C44.8364 29.2379 43.9054 26.9903 42.2482 25.333C40.591 23.6758 38.3433 22.7448 35.9996 22.7448C33.656 22.7448 31.4083 23.6758 29.7511 25.333C28.0938 26.9903 27.1628 29.2379 27.1628 31.5816V41.8912H22.7444C21.9632 41.8912 21.214 41.5808 20.6616 41.0284C20.1092 40.476 19.7988 39.7268 19.7988 38.9456V33.0544C19.7988 32.2732 20.1092 31.5239 20.6616 30.9715C21.214 30.4191 21.9632 30.1088 22.7444 30.1088H24.3085C24.6679 27.2617 26.0539 24.6436 28.2064 22.7458C30.3589 20.8479 33.1299 19.8008 35.9996 19.8008C38.8693 19.8008 41.6403 20.8479 43.7928 22.7458C45.9453 24.6436 47.3313 27.2617 47.6907 30.1088H49.2548Z" fill="#DBF227"/>
<path d="M31.317 39.0762L29.7559 41.574C31.6274 42.7466 33.792 43.3669 36.0005 43.3635C38.2091 43.3669 40.3736 42.7466 42.2452 41.574L40.684 39.0762C39.2803 39.9555 37.6569 40.4206 36.0005 40.4179C34.3442 40.4206 32.7207 39.9555 31.317 39.0762Z" fill="#DBF227"/>
</g>
<defs>
<clipPath id="clip0_82_3822">
<rect width="72" height="72" fill="white"/>
</clipPath>
</defs>
</svg>
