<svg width="18" height="16" viewBox="0 0 18 16" fill="none" xmlns="http://www.w3.org/2000/svg">
<path fill-rule="evenodd" clip-rule="evenodd" d="M4.53905 0.434783C5.92155 0.152967 7.4096 0 8.95844 0C10.5073 0 11.9954 0.152967 13.3778 0.434783L13.4839 0.456383C15.0627 0.777742 16.1147 0.991867 17.0213 2.15743C17.9181 3.31048 17.9176 4.64767 17.9168 6.71867V8.698C17.9176 10.769 17.9181 12.1062 17.0213 13.2593C16.1147 14.4248 15.0627 14.6389 13.4839 14.9602L13.3778 14.9819C11.9954 15.2637 10.5073 15.4167 8.95844 15.4167C7.4096 15.4167 5.92155 15.2637 4.53905 14.9819L4.43299 14.9602C2.85413 14.6389 1.80213 14.4248 0.895586 13.2593C-0.00123014 12.1062 -0.000730146 10.769 4.48539e-05 8.698V6.71867C-0.000730146 4.64767 -0.00123014 3.31048 0.895586 2.15743C1.80213 0.991867 2.85413 0.777742 4.43299 0.456383L4.53905 0.434783ZM8.37052 4.5852C8.8026 4.76655 9.32752 5.05969 9.96927 5.41811C10.0538 5.46528 10.1387 5.51215 10.2237 5.55907C10.6432 5.79065 11.0651 6.02358 11.4542 6.30333C11.8039 6.55475 12.1356 6.86633 12.2454 7.32075C12.3071 7.57583 12.3071 7.84083 12.2454 8.09592C12.1356 8.55033 11.8039 8.86192 11.4542 9.11333C11.0651 9.39308 10.6431 9.62608 10.2236 9.85767C10.1386 9.90458 10.0538 9.95142 9.96927 9.99858C9.32752 10.357 8.80269 10.6501 8.37052 10.8315C7.66802 11.1263 6.92309 11.1502 6.31084 10.6485C5.92764 10.3345 5.79218 9.88492 5.73275 9.43192C5.58912 8.337 5.58905 7.08017 5.73275 5.98477C5.79218 5.53172 5.92764 5.08215 6.31084 4.76818C6.92309 4.26653 7.66802 4.29038 8.37052 4.5852Z" fill="#F0F0D6"/>
</svg>
