<svg width="176" height="59" viewBox="0 0 176 59" fill="none" xmlns="http://www.w3.org/2000/svg">
<g clip-path="url(#clip0_1591_5280)">
<path d="M28.3473 56.0965C27.9913 56.0841 27.641 56.0673 27.2872 56.0404C27.1298 56.0281 26.969 56.0169 26.8116 56.0024C26.5688 55.9822 26.3304 55.9554 26.0875 55.9262C25.9799 55.9139 25.8746 55.8993 25.766 55.8848C25.4855 55.849 25.2083 55.8086 24.9311 55.7605C24.818 55.7425 24.7004 55.7224 24.5863 55.7011C24.0729 55.6104 23.5618 55.5041 23.0594 55.3831C22.9164 55.3483 22.7734 55.3125 22.6304 55.2745C22.5084 55.2453 22.382 55.2128 22.2633 55.177C21.9806 55.1009 21.7001 55.0181 21.4196 54.9295C21.2965 54.8915 21.1745 54.8534 21.0514 54.812C20.8996 54.765 20.7476 54.7112 20.5957 54.6586C20.4671 54.6138 20.3385 54.5702 20.211 54.5198C20.1267 54.4906 20.0446 54.4616 19.9626 54.4291C19.8163 54.3765 19.6732 54.3204 19.5301 54.2611C18.9525 54.0337 18.3858 53.7829 17.8315 53.5153C17.6918 53.4471 17.5521 53.3798 17.4146 53.3093C16.8779 53.0405 16.3524 52.7516 15.8356 52.4426C15.6982 52.3631 15.5618 52.2802 15.4265 52.1951C13.842 51.2164 12.3618 50.0665 11.0135 48.7665C10.8992 48.6601 10.7884 48.5515 10.6809 48.4395C10.57 48.3309 10.4591 48.2178 10.3538 48.1069C10.243 47.9983 10.1376 47.8863 10.0323 47.771C9.94806 47.6826 9.86268 47.5885 9.78059 47.4967C9.44244 47.1249 9.11868 46.7453 8.80263 46.3557C8.60413 46.1138 8.41126 45.8663 8.22498 45.6167C8.1285 45.489 8.03541 45.3625 7.94448 45.236C7.85138 45.1095 7.75819 44.9796 7.67065 44.8497C7.58639 44.7321 7.5043 44.6134 7.4256 44.4925C7.32912 44.3514 7.23602 44.2058 7.14284 44.0625C7.0552 43.9293 6.97094 43.7971 6.88894 43.6617C6.8013 43.5261 6.71931 43.3907 6.6406 43.2552C6.39555 42.8453 6.16159 42.43 5.9376 42.0021C5.86218 41.8599 5.78903 41.7189 5.71916 41.5744C5.64374 41.4333 5.57284 41.2877 5.50626 41.1433C5.4364 40.9966 5.36653 40.851 5.29892 40.7044L20.3152 23.8487C25.2194 18.896 33.1993 18.896 38.1025 23.8487L53.1221 40.7044C52.8005 41.4031 52.4479 42.0895 52.0687 42.7591C52.0077 42.8655 51.9456 42.9718 51.8813 43.0783C51.8258 43.1724 51.7704 43.2641 51.7149 43.3582C51.6185 43.5206 51.5187 43.6796 51.4178 43.8386C48.7766 47.9985 45.0611 51.3297 40.6703 53.4696C37.0857 55.2231 33.2282 56.1133 29.2055 56.1133C28.9161 56.1133 28.63 56.1077 28.344 56.0987M2.85732 29.4989C2.85732 14.8245 14.6781 2.889 29.2077 2.889C43.7373 2.889 55.5636 14.8245 55.5636 29.4989C55.5636 32.3408 55.1289 35.1145 54.2641 37.7739L40.1226 23.4947C34.1041 17.4167 24.3146 17.4167 18.2961 23.4947L4.15462 37.7773C3.29091 35.1179 2.85619 32.342 2.85619 29.5M0 29.4989C0 33.1571 0.654196 36.718 1.94039 40.0929C2.04797 40.3796 2.16213 40.6651 2.27967 40.9473C6.85895 51.9131 17.4279 59 29.2077 59C33.6672 59 37.9438 58.0124 41.9188 56.064C46.7809 53.6935 50.8967 50.0061 53.8239 45.3961C54.7198 43.9841 55.5026 42.4869 56.1413 40.945L56.1735 40.8655C56.2755 40.6236 56.372 40.3818 56.4629 40.1399C57.7624 36.7493 58.421 33.1739 58.421 29.4989C58.421 13.2333 45.3162 0 29.2078 0C13.0993 0 9.40342e-05 13.2321 9.40342e-05 29.4989H0Z" fill="#4D4D33"/>
<path d="M101.194 43.8547H97.1784C95.0413 38.3424 92.9321 32.8674 90.832 27.4206C88.7319 21.983 86.6411 16.4987 84.541 10.9864L71.2005 43.8548H69.5723L84.9203 5.89453H86.6041C89.0279 12.2477 91.4519 18.5728 93.8757 24.87C96.2995 31.1671 98.7419 37.4923 101.194 43.8455" fill="#031C2C"/>
<path d="M120.825 4.52093C123.535 4.52093 126.07 5.03478 128.42 6.05318C130.77 7.07158 132.833 8.48237 134.6 10.2668L133.027 12.1261C131.51 10.2668 129.697 8.78131 127.606 7.68818C125.506 6.59505 123.249 6.04387 120.825 6.04387C118.401 6.04387 116.467 6.5204 114.478 7.46397C112.489 8.41694 110.75 9.70627 109.27 11.3507C107.79 12.995 106.624 14.9196 105.773 17.1339C104.922 19.3388 104.496 21.7119 104.496 24.2252C104.496 26.7384 104.922 29.1022 105.773 31.2884C106.624 33.484 107.79 35.3993 109.27 37.0436C110.75 38.688 112.489 39.9867 114.478 40.9303C116.467 41.8833 118.586 42.3504 120.825 42.3504C123.064 42.3504 125.034 41.902 126.958 41.0051C128.873 40.1081 130.566 38.8936 132.028 37.3613C133.49 35.8291 134.674 34.0166 135.581 31.9424C136.487 29.859 136.987 27.6166 137.098 25.2062H120.825V23.674H140.354V24.2253C140.354 26.9254 139.836 29.476 138.809 31.8678C137.782 34.2596 136.386 36.3524 134.637 38.1369C132.879 39.9308 130.825 41.3415 128.457 42.3785C126.089 43.4157 123.545 43.9388 120.834 43.9388C118.123 43.9388 115.579 43.4157 113.211 42.3785C110.842 41.3414 108.779 39.9213 107.031 38.1369C105.273 36.3524 103.885 34.2596 102.858 31.8678C101.832 29.476 101.313 26.9254 101.313 24.2253C101.313 21.5251 101.832 18.9185 102.858 16.5267C103.885 14.1349 105.282 12.0514 107.031 10.2856C108.789 8.51048 110.842 7.10909 113.211 6.07198C115.579 5.03488 118.123 4.51172 120.834 4.51172" fill="#031C2C"/>
<path d="M144.536 5.89453H157.229C159.801 5.89453 162.216 6.39908 164.501 7.39877C166.776 8.40776 168.766 9.76252 170.468 11.4817C172.17 13.2008 173.511 15.2095 174.511 17.5078C175.51 19.8061 176 22.2727 176 24.898C176 27.5233 175.501 29.9899 174.511 32.2882C173.512 34.5866 172.17 36.5954 170.468 38.3144C168.765 40.0335 166.776 41.3882 164.501 42.3973C162.225 43.4063 159.801 43.9015 157.229 43.9015H144.536V5.89453ZM148.274 7.42678V42.3693H155.434C157.821 42.3693 160.051 41.9115 162.132 40.9959C164.214 40.0803 166.036 38.8283 167.609 37.2401C169.182 35.6518 170.422 33.8019 171.328 31.681C172.235 29.5602 172.688 27.2992 172.688 24.8887C172.688 22.4782 172.235 20.2172 171.328 18.0964C170.422 15.9756 169.182 14.1257 167.609 12.5374C166.036 10.9491 164.214 9.69709 162.132 8.78154C160.051 7.8659 157.821 7.40817 155.434 7.40817H148.274V7.42678Z" fill="#031C2C"/>
<path d="M76.5109 52.6016V56.292H75.8632L75.7985 54.8625C75.2989 55.7967 74.4107 56.4134 73.1525 56.4134C71.1079 56.4134 69.5723 54.8065 69.5723 52.8538C69.5723 50.9011 71.1912 49.1914 73.1988 49.1914C75.2063 49.1914 76.0945 50.0603 76.483 51.6299H75.6226C75.2803 50.4994 74.2256 49.9575 73.208 49.9575C71.6075 49.9575 70.3771 51.1721 70.3771 52.8631C70.3771 54.5541 71.5243 55.666 73.1433 55.666C74.7623 55.666 75.4562 54.6663 75.6412 53.3677V52.6202H76.4923L76.5109 52.6015V52.6016Z" fill="#A5B2BA"/>
<path d="M85.7249 52.7993C85.7249 54.8079 84.1151 56.4149 82.1261 56.4149C80.1371 56.4149 78.5273 54.8079 78.5273 52.7993C78.5273 50.7906 80.1371 49.1836 82.1261 49.1836C84.1151 49.1836 85.7249 50.7906 85.7249 52.7993ZM84.9108 52.7993C84.9108 51.2203 83.6895 49.9404 82.1261 49.9404C80.5627 49.9404 79.3415 51.211 79.3415 52.7993C79.3415 54.3875 80.5627 55.6582 82.1261 55.6582C83.6895 55.6582 84.9108 54.3875 84.9108 52.7993Z" fill="#A5B2BA"/>
<path d="M92.4416 55.5457V56.2932H87.8252V49.3047H88.63V55.5364H92.4416V55.5457Z" fill="#A5B2BA"/>
<path d="M100.296 52.7523C100.296 54.8264 98.7791 56.2932 96.6421 56.2932H94.209V49.3047H96.6421C98.7792 49.3047 100.296 50.7342 100.296 52.7429V52.7523ZM99.473 52.7523C99.473 51.192 98.2888 50.0616 96.6421 50.0616H95.0139V55.5458H96.6421C98.2888 55.5458 99.473 54.3873 99.473 52.7523Z" fill="#A5B2BA"/>
<path d="M110.797 56.2919L109.89 55.4697C109.289 56.0957 108.558 56.4227 107.661 56.4227C106.19 56.4227 105.209 55.5725 105.209 54.3579C105.209 53.1433 105.81 52.7509 106.615 52.4239C106.18 51.9194 105.977 51.499 105.977 50.9851C105.977 49.9107 106.828 49.1445 107.994 49.1445C109.159 49.1445 109.862 49.8453 110.001 51.0131H109.224C109.122 50.2377 108.632 49.8453 107.984 49.8453C107.337 49.8453 106.782 50.3218 106.782 51.0038C106.782 51.6859 107.392 52.2558 108.549 53.2836L109.816 54.4421L110.899 52.8725H111.713L110.381 54.8439C110.362 54.8626 110.353 54.8813 110.325 54.9187L111.833 56.2827H110.797V56.292L110.797 56.2919ZM109.381 55.0026L107.892 53.6572C107.596 53.3863 107.337 53.1527 107.105 52.9378C106.439 53.2087 105.977 53.6946 105.977 54.3579C105.977 55.0212 106.671 55.7313 107.679 55.7313C108.688 55.7313 108.9 55.4697 109.381 55.0026Z" fill="#A5B2BA"/>
<path d="M122.916 52.7523C122.916 54.8264 121.398 56.2932 119.261 56.2932H116.828V49.3047H119.261C121.398 49.3047 122.916 50.7342 122.916 52.7429V52.7523ZM122.092 52.7523C122.092 51.192 120.908 50.0616 119.261 50.0616H117.633V55.5458H119.261C120.908 55.5458 122.092 54.3873 122.092 52.7523Z" fill="#A5B2BA"/>
<path d="M125.82 49.3125V56.301H125.016V49.3125H125.82Z" fill="#A5B2BA"/>
<path d="M132.852 54.3405H129.281L128.43 56.2932H127.569L130.696 49.3047H131.455L134.582 56.2932H133.722L132.87 54.3405H132.852ZM132.528 53.6118L131.066 50.2671L129.605 53.6118H132.537H132.528Z" fill="#A5B2BA"/>
<path d="M143.074 56.2932H142.269V51.0892L139.957 54.9572H139.429L137.098 51.0611L137.116 56.2932H136.312V49.3047H136.922L139.688 53.9668L142.454 49.3047H143.065V56.2932H143.074Z" fill="#A5B2BA"/>
<path d="M152.364 52.7993C152.364 54.8079 150.754 56.4149 148.765 56.4149C146.776 56.4149 145.166 54.8079 145.166 52.7993C145.166 50.7906 146.776 49.1836 148.765 49.1836C150.754 49.1836 152.364 50.7906 152.364 52.7993ZM151.549 52.7993C151.549 51.2203 150.328 49.9404 148.765 49.9404C147.201 49.9404 145.98 51.211 145.98 52.7993C145.98 54.3875 147.201 55.6582 148.765 55.6582C150.328 55.6582 151.549 54.3875 151.549 52.7993Z" fill="#A5B2BA"/>
<path d="M160.366 49.3125V56.301H159.7L155.277 50.798V56.301H154.473V49.3125H155.12L159.561 54.8902V49.3125H160.366Z" fill="#A5B2BA"/>
<path d="M168.849 52.7523C168.849 54.8264 167.332 56.2932 165.195 56.2932H162.762V49.3047H165.195C167.332 49.3047 168.849 50.7342 168.849 52.7429V52.7523ZM168.026 52.7523C168.026 51.192 166.842 50.0616 165.195 50.0616H163.567V55.5458H165.195C166.842 55.5458 168.026 54.3873 168.026 52.7523Z" fill="#A5B2BA"/>
<path d="M175.991 51.2297H175.186C175.029 50.3982 174.455 49.8843 173.326 49.8843C172.198 49.8843 171.652 50.3422 171.652 51.1362C171.652 51.9303 172.087 52.0985 172.91 52.2667L174.039 52.4816C175.279 52.7245 175.982 53.2944 175.982 54.3222C175.982 55.35 174.946 56.415 173.391 56.415C171.837 56.415 170.653 55.5648 170.505 54.0513H171.301C171.467 55.0977 172.207 55.6863 173.438 55.6863C174.668 55.6863 175.168 55.2004 175.168 54.4156C175.168 53.6309 174.788 53.4253 173.919 53.2758L172.623 53.0142C171.393 52.7806 170.801 52.1452 170.801 51.183C170.801 50.2207 171.8 49.1836 173.28 49.1836C174.761 49.1836 175.824 49.7909 175.991 51.2297H175.991Z" fill="#A5B2BA"/>
</g>
<defs>
<clipPath id="clip0_1591_5280">
<rect width="176" height="59" fill="white"/>
</clipPath>
</defs>
</svg>
